<mxfile host="app.diagrams.net" modified="2022-05-13T07:05:40.269Z" agent="5.0 (Windows NT 10.0; Win64; x64) AppleWebKit/537.36 (KHTML, like Gecko) Chrome/101.0.4951.54 Safari/537.36" etag="YschzfeZlnE1n8ovkr-w" version="18.0.3" type="github">
  <diagram name="Page-1" id="b5b7bab2-c9e2-2cf4-8b2a-24fd1a2a6d21">
    <mxGraphModel dx="1422" dy="705" grid="1" gridSize="10" guides="1" tooltips="1" connect="1" arrows="1" fold="1" page="1" pageScale="1" pageWidth="827" pageHeight="1169" background="none" math="0" shadow="0">
      <root>
        <mxCell id="0" />
        <mxCell id="1" parent="0" />
        <mxCell id="6e0c8c40b5770093-72" value="" style="shape=folder;fontStyle=1;spacingTop=10;tabWidth=264;tabHeight=26;tabPosition=left;html=1;rounded=0;shadow=0;comic=0;labelBackgroundColor=none;strokeWidth=1;fillColor=none;fontFamily=Verdana;fontSize=10;align=center;" parent="1" vertex="1">
          <mxGeometry x="160" y="114.5" width="1167.5" height="495.5" as="geometry" />
        </mxCell>
        <mxCell id="6e0c8c40b5770093-6" value="" style="group" parent="1" vertex="1" connectable="0">
          <mxGeometry x="465.5" y="174.5" width="130" height="70" as="geometry" />
        </mxCell>
        <mxCell id="6e0c8c40b5770093-4" value="Driver &lt;br&gt;Specification" style="shape=folder;fontStyle=1;spacingTop=10;tabWidth=50;tabHeight=17;tabPosition=left;html=1;rounded=0;shadow=0;comic=0;labelBackgroundColor=none;strokeWidth=1;fontFamily=Verdana;fontSize=10;align=center;" parent="6e0c8c40b5770093-6" vertex="1">
          <mxGeometry width="130" height="70" as="geometry" />
        </mxCell>
        <mxCell id="6e0c8c40b5770093-7" value="" style="group" parent="1" vertex="1" connectable="0">
          <mxGeometry x="460" y="340" width="130" height="70" as="geometry" />
        </mxCell>
        <mxCell id="6e0c8c40b5770093-8" value="Bus Driver&lt;br&gt;Specification" style="shape=folder;fontStyle=1;spacingTop=10;tabWidth=50;tabHeight=17;tabPosition=left;html=1;rounded=0;shadow=0;comic=0;labelBackgroundColor=none;strokeWidth=1;fontFamily=Verdana;fontSize=10;align=center;" parent="6e0c8c40b5770093-7" vertex="1">
          <mxGeometry width="130" height="70" as="geometry" />
        </mxCell>
        <mxCell id="6e0c8c40b5770093-58" style="rounded=0;html=1;dashed=1;labelBackgroundColor=none;startFill=0;endArrow=open;endFill=0;endSize=10;fontFamily=Verdana;fontSize=10;edgeStyle=orthogonalEdgeStyle;exitX=0.25;exitY=1;exitDx=0;exitDy=0;exitPerimeter=0;entryX=0;entryY=0;entryDx=25;entryDy=0;entryPerimeter=0;" parent="1" source="6e0c8c40b5770093-4" target="6e0c8c40b5770093-8" edge="1">
          <mxGeometry relative="1" as="geometry">
            <mxPoint x="527.26" y="320.5" as="targetPoint" />
          </mxGeometry>
        </mxCell>
        <mxCell id="6e0c8c40b5770093-59" style="rounded=0;html=1;dashed=1;labelBackgroundColor=none;startFill=0;endArrow=open;endFill=0;endSize=10;fontFamily=Verdana;fontSize=10;edgeStyle=elbowEdgeStyle;exitX=0.25;exitY=1;exitDx=0;exitDy=0;exitPerimeter=0;" parent="1" edge="1" target="b7Xlg6Y0K3ejAnAs9icS-4" source="b7Xlg6Y0K3ejAnAs9icS-2">
          <mxGeometry relative="1" as="geometry">
            <mxPoint x="843.3275862068965" y="244.5" as="sourcePoint" />
            <mxPoint x="843.3275862068965" y="320.84482758620686" as="targetPoint" />
          </mxGeometry>
        </mxCell>
        <mxCell id="6e0c8c40b5770093-73" value="ROS2 hardware interface standardisation" style="text;html=1;align=left;verticalAlign=top;spacingTop=-4;fontSize=10;fontFamily=Verdana" parent="1" vertex="1">
          <mxGeometry x="183.5" y="114.5" width="130" height="20" as="geometry" />
        </mxCell>
        <mxCell id="b7Xlg6Y0K3ejAnAs9icS-1" value="" style="group" vertex="1" connectable="0" parent="1">
          <mxGeometry x="660" y="340" width="130" height="70" as="geometry" />
        </mxCell>
        <mxCell id="b7Xlg6Y0K3ejAnAs9icS-2" value="Device Driver&lt;br&gt;Specification" style="shape=folder;fontStyle=1;spacingTop=10;tabWidth=50;tabHeight=17;tabPosition=left;html=1;rounded=0;shadow=0;comic=0;labelBackgroundColor=none;strokeWidth=1;fontFamily=Verdana;fontSize=10;align=center;" vertex="1" parent="b7Xlg6Y0K3ejAnAs9icS-1">
          <mxGeometry width="130" height="70" as="geometry" />
        </mxCell>
        <mxCell id="b7Xlg6Y0K3ejAnAs9icS-4" value="Motion Controller&lt;br&gt;Specification" style="shape=folder;fontStyle=1;spacingTop=10;tabWidth=50;tabHeight=17;tabPosition=left;html=1;rounded=0;shadow=0;comic=0;labelBackgroundColor=none;strokeWidth=1;fontFamily=Verdana;fontSize=10;align=center;" vertex="1" parent="1">
          <mxGeometry x="660" y="480" width="130" height="70" as="geometry" />
        </mxCell>
        <mxCell id="b7Xlg6Y0K3ejAnAs9icS-5" value="Laser Scanner &lt;br&gt;Specification" style="shape=folder;fontStyle=1;spacingTop=10;tabWidth=50;tabHeight=17;tabPosition=left;html=1;rounded=0;shadow=0;comic=0;labelBackgroundColor=none;strokeWidth=1;fontFamily=Verdana;fontSize=10;align=center;" vertex="1" parent="1">
          <mxGeometry x="810" y="480" width="130" height="70" as="geometry" />
        </mxCell>
        <mxCell id="b7Xlg6Y0K3ejAnAs9icS-6" style="rounded=0;html=1;dashed=1;labelBackgroundColor=none;startFill=0;endArrow=open;endFill=0;endSize=10;fontFamily=Verdana;fontSize=10;edgeStyle=orthogonalEdgeStyle;exitX=0.5;exitY=1;exitDx=0;exitDy=0;exitPerimeter=0;entryX=0;entryY=0;entryDx=25;entryDy=0;entryPerimeter=0;" edge="1" parent="1" source="b7Xlg6Y0K3ejAnAs9icS-2" target="b7Xlg6Y0K3ejAnAs9icS-5">
          <mxGeometry relative="1" as="geometry">
            <mxPoint x="702.5" y="420" as="sourcePoint" />
            <mxPoint x="703" y="490" as="targetPoint" />
          </mxGeometry>
        </mxCell>
        <mxCell id="b7Xlg6Y0K3ejAnAs9icS-7" value="...&lt;br&gt;Specification" style="shape=folder;fontStyle=1;spacingTop=10;tabWidth=50;tabHeight=17;tabPosition=left;html=1;rounded=0;shadow=0;comic=0;labelBackgroundColor=none;strokeWidth=1;fontFamily=Verdana;fontSize=10;align=center;" vertex="1" parent="1">
          <mxGeometry x="960" y="480" width="130" height="70" as="geometry" />
        </mxCell>
        <mxCell id="b7Xlg6Y0K3ejAnAs9icS-8" style="rounded=0;html=1;dashed=1;labelBackgroundColor=none;startFill=0;endArrow=open;endFill=0;endSize=10;fontFamily=Verdana;fontSize=10;edgeStyle=orthogonalEdgeStyle;exitX=0.75;exitY=1;exitDx=0;exitDy=0;exitPerimeter=0;entryX=0;entryY=0;entryDx=25;entryDy=0;entryPerimeter=0;" edge="1" parent="1" source="b7Xlg6Y0K3ejAnAs9icS-2" target="b7Xlg6Y0K3ejAnAs9icS-7">
          <mxGeometry relative="1" as="geometry">
            <mxPoint x="735" y="420.0000000000001" as="sourcePoint" />
            <mxPoint x="845" y="490.0000000000001" as="targetPoint" />
            <Array as="points">
              <mxPoint x="757" y="430" />
              <mxPoint x="985" y="430" />
            </Array>
          </mxGeometry>
        </mxCell>
        <mxCell id="b7Xlg6Y0K3ejAnAs9icS-9" style="rounded=0;html=1;dashed=1;labelBackgroundColor=none;startFill=0;endArrow=open;endFill=0;endSize=10;fontFamily=Verdana;fontSize=10;entryX=0;entryY=0;entryPerimeter=0;edgeStyle=orthogonalEdgeStyle;entryDx=25;entryDy=0;exitX=0.5;exitY=1;exitDx=0;exitDy=0;exitPerimeter=0;" edge="1" parent="1" source="6e0c8c40b5770093-4" target="b7Xlg6Y0K3ejAnAs9icS-2">
          <mxGeometry relative="1" as="geometry">
            <mxPoint x="560.0344827586207" y="254.5" as="sourcePoint" />
            <mxPoint x="560" y="367.0000000000001" as="targetPoint" />
          </mxGeometry>
        </mxCell>
        <mxCell id="b7Xlg6Y0K3ejAnAs9icS-10" value="&lt;div style=&quot;text-align: left;&quot;&gt;&lt;span style=&quot;background-color: initial;&quot;&gt;&lt;b&gt;General rules for drivers:&lt;/b&gt;&lt;/span&gt;&lt;/div&gt;&lt;div style=&quot;text-align: left;&quot;&gt;Definition&lt;/div&gt;&lt;div style=&quot;text-align: left;&quot;&gt;Naming&lt;/div&gt;&lt;div style=&quot;text-align: left;&quot;&gt;Interface&lt;/div&gt;&lt;div style=&quot;text-align: left;&quot;&gt;Behaviour&lt;/div&gt;" style="shape=note;whiteSpace=wrap;html=1;backgroundOutline=1;darkOpacity=0.05;size=17;" vertex="1" parent="1">
          <mxGeometry x="650" y="169.5" width="200" height="80" as="geometry" />
        </mxCell>
        <mxCell id="b7Xlg6Y0K3ejAnAs9icS-11" value="" style="endArrow=none;dashed=1;html=1;rounded=0;exitX=0;exitY=0;exitDx=130;exitDy=43.5;exitPerimeter=0;entryX=0;entryY=0.5;entryDx=0;entryDy=0;entryPerimeter=0;" edge="1" parent="1" source="6e0c8c40b5770093-4" target="b7Xlg6Y0K3ejAnAs9icS-10">
          <mxGeometry width="50" height="50" relative="1" as="geometry">
            <mxPoint x="810" y="270" as="sourcePoint" />
            <mxPoint x="860" y="220" as="targetPoint" />
          </mxGeometry>
        </mxCell>
        <mxCell id="b7Xlg6Y0K3ejAnAs9icS-12" value="&lt;div style=&quot;text-align: left;&quot;&gt;&lt;span style=&quot;background-color: initial;&quot;&gt;&lt;b&gt;General rules for bus drivers:&lt;/b&gt;&lt;/span&gt;&lt;/div&gt;&lt;div style=&quot;text-align: left;&quot;&gt;Definition&lt;/div&gt;&lt;div style=&quot;text-align: left;&quot;&gt;Naming&lt;/div&gt;&lt;div style=&quot;text-align: left;&quot;&gt;Interface&lt;/div&gt;&lt;div style=&quot;text-align: left;&quot;&gt;Behaviour&lt;/div&gt;" style="shape=note;whiteSpace=wrap;html=1;backgroundOutline=1;darkOpacity=0.05;size=17;" vertex="1" parent="1">
          <mxGeometry x="220" y="360" width="200" height="80" as="geometry" />
        </mxCell>
        <mxCell id="b7Xlg6Y0K3ejAnAs9icS-13" value="" style="endArrow=none;dashed=1;html=1;rounded=0;exitX=0;exitY=0;exitDx=200;exitDy=48.5;exitPerimeter=0;entryX=0;entryY=0;entryDx=0;entryDy=30.25;entryPerimeter=0;edgeStyle=orthogonalEdgeStyle;" edge="1" parent="1" source="b7Xlg6Y0K3ejAnAs9icS-12" target="6e0c8c40b5770093-8">
          <mxGeometry width="50" height="50" relative="1" as="geometry">
            <mxPoint x="810" y="340" as="sourcePoint" />
            <mxPoint x="860" y="290" as="targetPoint" />
          </mxGeometry>
        </mxCell>
        <mxCell id="b7Xlg6Y0K3ejAnAs9icS-14" value="&lt;div style=&quot;text-align: left;&quot;&gt;&lt;span style=&quot;background-color: initial;&quot;&gt;&lt;b&gt;General rules for device drivers:&lt;/b&gt;&lt;/span&gt;&lt;/div&gt;&lt;div style=&quot;text-align: left;&quot;&gt;Definition&lt;/div&gt;&lt;div style=&quot;text-align: left;&quot;&gt;Naming&lt;/div&gt;&lt;div style=&quot;text-align: left;&quot;&gt;Interface&lt;/div&gt;&lt;div style=&quot;text-align: left;&quot;&gt;Behaviour&lt;/div&gt;" style="shape=note;whiteSpace=wrap;html=1;backgroundOutline=1;darkOpacity=0.05;size=17;" vertex="1" parent="1">
          <mxGeometry x="890" y="310" width="220" height="80" as="geometry" />
        </mxCell>
        <mxCell id="b7Xlg6Y0K3ejAnAs9icS-15" value="" style="endArrow=none;dashed=1;html=1;rounded=0;exitX=0;exitY=0;exitDx=130;exitDy=43.5;exitPerimeter=0;entryX=0;entryY=0.5;entryDx=0;entryDy=0;entryPerimeter=0;edgeStyle=orthogonalEdgeStyle;" edge="1" parent="1" source="b7Xlg6Y0K3ejAnAs9icS-2" target="b7Xlg6Y0K3ejAnAs9icS-14">
          <mxGeometry width="50" height="50" relative="1" as="geometry">
            <mxPoint x="810" y="340" as="sourcePoint" />
            <mxPoint x="860" y="290" as="targetPoint" />
          </mxGeometry>
        </mxCell>
      </root>
    </mxGraphModel>
  </diagram>
</mxfile>
